---
title: 何雨雯.1994-给你的歌【WAV+CUE】
date: 2022-12-12 11:31:32
categories: WAV车载音乐、镜像
tags: 华语中文
---
# 何雨雯.1994-给你的歌【WAV+CUE】

REM GENRE POP
REM DATE 1994
REM DISCID 8B0A260A
REM COMMENT "ExactAudioCopy v1.0b3"
PERFORMER "何雨雯"
TITLE "给你的歌"
FILE "何雨雯.-.[给你的歌](1994)[WAV].wav" WAVE
TRACK 01 AUDIO
TITLE "彩色心愿"
PERFORMER "何雨雯"
INDEX 01 00:00:00
TRACK 02 AUDIO
TITLE "让我拥有你的爱"
PERFORMER "何雨雯"
INDEX 00 03:13:12
INDEX 01 03:15:62
TRACK 03 AUDIO
TITLE "Kissing in the
rain"
PERFORMER "何雨雯"
INDEX 00 07:37:37
INDEX 01 07:40:00
TRACK 04 AUDIO
TITLE "给你的歌"
PERFORMER "何雨雯"
INDEX 00 12:05:25
INDEX 01 12:08:50
TRACK 05 AUDIO
TITLE "透明的心事"
PERFORMER "何雨雯"
INDEX 00 16:29:37
INDEX 01 16:32:37
TRACK 06 AUDIO
TITLE "如果爱我"
PERFORMER "何雨雯"
INDEX 00 21:33:62
INDEX 01 21:36:62
TRACK 07 AUDIO
TITLE "风别笑我不懂"
PERFORMER "何雨雯"
INDEX 00 25:52:12
INDEX 01 25:55:12
TRACK 08 AUDIO
TITLE "天空是我的家"
PERFORMER "何雨雯"
INDEX 00 30:30:25
INDEX 01 30:33:25
TRACK 09 AUDIO
TITLE "一生等一人"
PERFORMER "何雨雯"
INDEX 00 34:29:25
INDEX 01 34:32:50
TRACK 10 AUDIO
TITLE "给大地一个家"
PERFORMER "何雨雯"
INDEX 00 38:36:50
INDEX 01 38:39:50
何雨雯.1994 - 给你的歌【天王唱片】【WAV+CUE】.rar:
https://url27.ctfile.com/f/9388027-746401335-e9a2a3?p=559675
(访问密码: 559675)
原文：[链接](https://blog.sina.com.cn/s/blog_1647c7e76010310ki.html)